<?xml version="1.0" encoding="UTF-8" standalone="no"?>
<!DOCTYPE svg PUBLIC "-//W3C//DTD SVG 1.1//EN"
 "http://www.w3.org/Graphics/SVG/1.1/DTD/svg11.dtd">
<!-- Generated by graphviz version 2.49.3 (0)
 -->
<!-- Title: G Pages: 1 -->
<svg width="1000pt" height="1368pt"
 viewBox="0.00 0.00 1000.00 1368.00" xmlns="http://www.w3.org/2000/svg" xmlns:xlink="http://www.w3.org/1999/xlink">
<g id="graph0" class="graph" transform="scale(1 1) rotate(0) translate(4 1364)">
<title>G</title>
<!-- client -->
<g id="node1" class="node">
<title>client</title>
<polygon fill="none" stroke="black" points="899,-1360 845,-1360 845,-1324 899,-1324 899,-1360"/>
<text text-anchor="middle" x="872" y="-1338.3" font-family="Handlee" font-size="14.00">client</text>
</g>
<!-- split_dns -->
<g id="node2" class="node">
<title>split_dns</title>
<polygon fill="none" stroke="black" points="525,-1287 455.29,-1269 525,-1251 594.71,-1269 525,-1287"/>
<polyline fill="none" stroke="black" points="466.91,-1272 466.91,-1266 "/>
<polyline fill="none" stroke="black" points="513.38,-1254 536.62,-1254 "/>
<polyline fill="none" stroke="black" points="583.09,-1266 583.09,-1272 "/>
<polyline fill="none" stroke="black" points="536.62,-1284 513.38,-1284 "/>
<text text-anchor="middle" x="525" y="-1265.3" font-family="Handlee" font-size="14.00">split dns</text>
</g>
<!-- client&#45;&gt;split_dns -->
<g id="edge1" class="edge">
<title>client&#45;&gt;split_dns</title>
<path fill="none" stroke="black" d="M844.8,-1337.24C804.78,-1331.52 727.76,-1319.84 663,-1306 630.26,-1299 593.6,-1289.35 566.3,-1281.81"/>
<polygon fill="black" stroke="black" points="566.9,-1278.34 556.32,-1279.03 565.02,-1285.08 566.9,-1278.34"/>
</g>
<!-- a0 -->
<g id="node3" class="node">
<title>a0</title>
<ellipse fill="none" stroke="black" cx="321" cy="-949" rx="167.07" ry="18"/>
<text text-anchor="middle" x="321" y="-945.3" font-family="Handlee" font-size="14.00">overlay network (tailscale/zerotier)</text>
</g>
<!-- split_dns&#45;&gt;a0 -->
<g id="edge2" class="edge">
<title>split_dns&#45;&gt;a0</title>
<path fill="none" stroke="black" d="M482.82,-1261.87C414.21,-1250.69 286,-1224.29 286,-1183 286,-1183 286,-1183 286,-1035 286,-1014.06 295.2,-992.25 304.16,-975.96"/>
<polygon fill="black" stroke="black" points="307.34,-977.47 309.35,-967.06 301.29,-973.94 307.34,-977.47"/>
<text text-anchor="middle" x="337.5" y="-1105.3" font-family="Handlee" font-size="14.00">coredns mDNS</text>
</g>
<!-- b0 -->
<g id="node4" class="node">
<title>b0</title>
<ellipse fill="none" stroke="black" cx="525" cy="-1182" rx="124.28" ry="18"/>
<text text-anchor="middle" x="525" y="-1178.3" font-family="Handlee" font-size="14.00">public accessible servers</text>
</g>
<!-- split_dns&#45;&gt;b0 -->
<g id="edge3" class="edge">
<title>split_dns&#45;&gt;b0</title>
<path fill="none" stroke="black" d="M525,-1250.8C525,-1239.16 525,-1223.55 525,-1210.24"/>
<polygon fill="black" stroke="black" points="528.5,-1210.18 525,-1200.18 521.5,-1210.18 528.5,-1210.18"/>
<text text-anchor="middle" x="567.5" y="-1221.8" font-family="Handlee" font-size="14.00">Normal DNS</text>
</g>
<!-- aio_proxy -->
<g id="node5" class="node">
<title>aio_proxy</title>
<ellipse fill="none" stroke="black" cx="344" cy="-759" rx="51.99" ry="18"/>
<text text-anchor="middle" x="344" y="-755.3" font-family="Handlee" font-size="14.00">aio proxy</text>
</g>
<!-- a0&#45;&gt;aio_proxy -->
<g id="edge4" class="edge">
<title>a0&#45;&gt;aio_proxy</title>
<path fill="none" stroke="black" d="M328.73,-930.74C336.89,-911.49 349.21,-879.23 354,-850 356.59,-834.21 355.46,-829.93 354,-814 353.19,-805.23 351.67,-795.75 350.04,-787.22"/>
<polygon fill="black" stroke="black" points="353.47,-786.51 348.06,-777.4 346.61,-787.89 353.47,-786.51"/>
<text text-anchor="middle" x="420.5" y="-828.3" font-family="Handlee" font-size="14.00">direct connnection</text>
</g>
<!-- a0&#45;&gt;aio_proxy -->
<g id="edge5" class="edge">
<title>a0&#45;&gt;aio_proxy</title>
<path fill="none" stroke="black" d="M376.66,-931.9C415.69,-917.36 465.03,-891.72 489,-850 496.97,-836.13 498.13,-827.14 489,-814 469.78,-786.33 434.58,-772.81 403.68,-766.22"/>
<polygon fill="black" stroke="black" points="404.31,-762.77 393.83,-764.31 402.98,-769.65 404.31,-762.77"/>
<text text-anchor="middle" x="547.5" y="-828.3" font-family="Handlee" font-size="14.00">UPNP/NAT&#45;PMP</text>
</g>
<!-- a0&#45;&gt;aio_proxy -->
<g id="edge6" class="edge">
<title>a0&#45;&gt;aio_proxy</title>
<path fill="none" stroke="black" d="M227.62,-933.98C133.25,-915.89 8.45,-878.77 62,-814 89.41,-780.84 208.09,-767.85 282.48,-762.9"/>
<polygon fill="black" stroke="black" points="282.91,-766.38 292.67,-762.25 282.47,-759.39 282.91,-766.38"/>
<text text-anchor="middle" x="129" y="-828.3" font-family="Handlee" font-size="14.00">UDP hole&#45;punching</text>
</g>
<!-- relay_servers -->
<g id="node6" class="node">
<title>relay_servers</title>
<ellipse fill="none" stroke="black" cx="275" cy="-832" rx="69.59" ry="18"/>
<text text-anchor="middle" x="275" y="-828.3" font-family="Handlee" font-size="14.00">relay servers</text>
</g>
<!-- a0&#45;&gt;relay_servers -->
<g id="edge7" class="edge">
<title>a0&#45;&gt;relay_servers</title>
<path fill="none" stroke="black" d="M314.01,-930.53C306.47,-911.68 294.37,-881.43 285.64,-859.61"/>
<polygon fill="black" stroke="black" points="288.87,-858.24 281.9,-850.25 282.37,-860.84 288.87,-858.24"/>
</g>
<!-- PROXY -->
<g id="node7" class="node">
<title>PROXY</title>
<ellipse fill="none" stroke="black" cx="527" cy="-1109" rx="120.48" ry="18"/>
<text text-anchor="middle" x="527" y="-1105.3" font-family="Handlee" font-size="14.00">prepend PROXY protocol</text>
</g>
<!-- b0&#45;&gt;PROXY -->
<g id="edge9" class="edge">
<title>b0&#45;&gt;PROXY</title>
<path fill="none" stroke="black" d="M525.48,-1163.81C525.71,-1155.79 525.98,-1146.05 526.24,-1137.07"/>
<polygon fill="black" stroke="black" points="529.74,-1137.12 526.52,-1127.03 522.74,-1136.93 529.74,-1137.12"/>
</g>
<!-- aio_proxy_unwrapped -->
<g id="node9" class="node">
<title>aio_proxy_unwrapped</title>
<ellipse fill="none" stroke="black" cx="344" cy="-686" rx="116.18" ry="18"/>
<text text-anchor="middle" x="344" y="-682.3" font-family="Handlee" font-size="14.00">unwrap PROXY protocol</text>
</g>
<!-- aio_proxy&#45;&gt;aio_proxy_unwrapped -->
<g id="edge12" class="edge">
<title>aio_proxy&#45;&gt;aio_proxy_unwrapped</title>
<path fill="none" stroke="black" d="M344,-740.81C344,-732.79 344,-723.05 344,-714.07"/>
<polygon fill="black" stroke="black" points="347.5,-714.03 344,-704.03 340.5,-714.03 347.5,-714.03"/>
</g>
<!-- relay_servers&#45;&gt;aio_proxy -->
<g id="edge8" class="edge">
<title>relay_servers&#45;&gt;aio_proxy</title>
<path fill="none" stroke="black" d="M291.35,-814.17C300.24,-805.02 311.38,-793.56 321.12,-783.54"/>
<polygon fill="black" stroke="black" points="323.78,-785.83 328.24,-776.22 318.76,-780.95 323.78,-785.83"/>
</g>
<!-- sni -->
<g id="node8" class="node">
<title>sni</title>
<ellipse fill="none" stroke="black" cx="469" cy="-1036" rx="96.68" ry="18"/>
<text text-anchor="middle" x="469" y="-1032.3" font-family="Handlee" font-size="14.00">route based on SNI</text>
</g>
<!-- PROXY&#45;&gt;sni -->
<g id="edge10" class="edge">
<title>PROXY&#45;&gt;sni</title>
<path fill="none" stroke="black" d="M512.96,-1090.81C505.91,-1082.18 497.23,-1071.56 489.45,-1062.03"/>
<polygon fill="black" stroke="black" points="491.95,-1059.56 482.91,-1054.03 486.53,-1063.99 491.95,-1059.56"/>
</g>
<!-- sni&#45;&gt;a0 -->
<g id="edge11" class="edge">
<title>sni&#45;&gt;a0</title>
<path fill="none" stroke="black" d="M440.46,-1018.61C417.35,-1005.33 384.57,-986.51 359.19,-971.93"/>
<polygon fill="black" stroke="black" points="360.62,-968.72 350.21,-966.77 357.14,-974.79 360.62,-968.72"/>
<text text-anchor="middle" x="452" y="-988.8" font-family="Handlee" font-size="14.00">LLMNR/mDNS</text>
</g>
<!-- peek_packet_header -->
<g id="node10" class="node">
<title>peek_packet_header</title>
<polygon fill="none" stroke="black" points="344,-631 202.4,-613 344,-595 485.6,-613 344,-631"/>
<polyline fill="none" stroke="black" points="214.3,-614.51 214.3,-611.49 "/>
<polyline fill="none" stroke="black" points="332.1,-596.51 355.9,-596.51 "/>
<polyline fill="none" stroke="black" points="473.7,-611.49 473.7,-614.51 "/>
<polyline fill="none" stroke="black" points="355.9,-629.49 332.1,-629.49 "/>
<text text-anchor="middle" x="344" y="-609.3" font-family="Handlee" font-size="14.00">peek packet header</text>
</g>
<!-- aio_proxy_unwrapped&#45;&gt;peek_packet_header -->
<g id="edge13" class="edge">
<title>aio_proxy_unwrapped&#45;&gt;peek_packet_header</title>
<path fill="none" stroke="black" d="M344,-667.81C344,-659.79 344,-650.05 344,-641.07"/>
<polygon fill="black" stroke="black" points="347.5,-641.03 344,-631.03 340.5,-641.03 347.5,-641.03"/>
</g>
<!-- ssh_server -->
<g id="node11" class="node">
<title>ssh_server</title>
<polygon fill="none" stroke="black" points="90.5,-109 1.5,-109 1.5,-73 90.5,-73 90.5,-109"/>
<text text-anchor="middle" x="46" y="-87.3" font-family="Handlee" font-size="14.00">ssh server</text>
</g>
<!-- peek_packet_header&#45;&gt;ssh_server -->
<g id="edge14" class="edge">
<title>peek_packet_header&#45;&gt;ssh_server</title>
<path fill="none" stroke="black" d="M264.53,-605.02C176.25,-595.01 46,-572.53 46,-527 46,-527 46,-527 46,-177 46,-157.75 46,-136.05 46,-119.4"/>
<polygon fill="black" stroke="black" points="49.5,-119.26 46,-109.26 42.5,-119.26 49.5,-119.26"/>
<text text-anchor="middle" x="79.5" y="-348.3" font-family="Handlee" font-size="14.00">OpenSSH</text>
</g>
<!-- traefik -->
<g id="node12" class="node">
<title>traefik</title>
<ellipse fill="none" stroke="black" cx="416" cy="-526" rx="40.09" ry="18"/>
<text text-anchor="middle" x="416" y="-522.3" font-family="Handlee" font-size="14.00">traefik</text>
</g>
<!-- peek_packet_header&#45;&gt;traefik -->
<g id="edge15" class="edge">
<title>peek_packet_header&#45;&gt;traefik</title>
<path fill="none" stroke="black" d="M357.21,-596.41C368.03,-583.63 383.52,-565.34 395.89,-550.74"/>
<polygon fill="black" stroke="black" points="398.6,-552.96 402.39,-543.07 393.25,-548.44 398.6,-552.96"/>
<text text-anchor="middle" x="417.5" y="-565.8" font-family="Handlee" font-size="14.00">HTTP/TLS</text>
</g>
<!-- other_tcp_udp_services -->
<g id="node13" class="node">
<title>other_tcp_udp_services</title>
<polygon fill="none" stroke="black" points="558.5,-109 379.5,-109 379.5,-73 558.5,-73 558.5,-109"/>
<text text-anchor="middle" x="469" y="-87.3" font-family="Handlee" font-size="14.00">other TCP/UDP services</text>
</g>
<!-- peek_packet_header&#45;&gt;other_tcp_udp_services -->
<g id="edge16" class="edge">
<title>peek_packet_header&#45;&gt;other_tcp_udp_services</title>
<path fill="none" stroke="black" d="M344,-594.74C344,-577.57 344,-550.46 344,-527 344,-527 344,-527 344,-177 344,-146.45 369.84,-126.11 398.03,-113.01"/>
<polygon fill="black" stroke="black" points="399.46,-116.2 407.23,-109.01 396.67,-109.79 399.46,-116.2"/>
<text text-anchor="middle" x="396.5" y="-348.3" font-family="Handlee" font-size="14.00">other protocols</text>
</g>
<!-- ssh_server&#45;&gt;client -->
<g id="edge36" class="edge">
<title>ssh_server&#45;&gt;client</title>
<path fill="none" stroke="black" d="M30.17,-109.11C16.86,-125.32 0,-150.99 0,-177 0,-1270 0,-1270 0,-1270 0,-1312.54 668.1,-1335.01 834.71,-1339.95"/>
<polygon fill="black" stroke="black" points="834.85,-1343.45 844.95,-1340.25 835.05,-1336.46 834.85,-1343.45"/>
</g>
<!-- authelia -->
<g id="node14" class="node">
<title>authelia</title>
<polygon fill="none" stroke="black" points="675,-457 530.88,-439 675,-421 819.12,-439 675,-457"/>
<polyline fill="none" stroke="black" points="542.79,-440.49 542.79,-437.51 "/>
<polyline fill="none" stroke="black" points="663.09,-422.49 686.91,-422.49 "/>
<polyline fill="none" stroke="black" points="807.21,-437.51 807.21,-440.49 "/>
<polyline fill="none" stroke="black" points="686.91,-455.51 663.09,-455.51 "/>
<text text-anchor="middle" x="675" y="-435.3" font-family="Handlee" font-size="14.00">authelia middleware</text>
</g>
<!-- traefik&#45;&gt;authelia -->
<g id="edge18" class="edge">
<title>traefik&#45;&gt;authelia</title>
<path fill="none" stroke="black" d="M439,-511.11C458.4,-499.94 487.2,-484.57 514,-475 542.8,-464.72 575.62,-456.92 604.08,-451.33"/>
<polygon fill="black" stroke="black" points="604.79,-454.75 613.95,-449.44 603.47,-447.88 604.79,-454.75"/>
<text text-anchor="middle" x="588.5" y="-478.8" font-family="Handlee" font-size="14.00">authorization request</text>
</g>
<!-- authorized -->
<g id="node15" class="node">
<title>authorized</title>
<ellipse fill="none" stroke="black" cx="534" cy="-352" rx="40.09" ry="18"/>
<text text-anchor="middle" x="534" y="-348.3" font-family="Handlee" font-size="14.00">traefik</text>
</g>
<!-- traefik&#45;&gt;authorized -->
<g id="edge19" class="edge">
<title>traefik&#45;&gt;authorized</title>
<path fill="none" stroke="black" d="M413.06,-507.72C410.27,-485.83 408.62,-447.73 425,-421 440.48,-395.73 469.25,-378.37 493.35,-367.52"/>
<polygon fill="black" stroke="black" points="494.84,-370.69 502.66,-363.54 492.09,-364.26 494.84,-370.69"/>
<text text-anchor="middle" x="473.5" y="-435.3" font-family="Handlee" font-size="14.00">public service</text>
</g>
<!-- other_tcp_udp_services&#45;&gt;client -->
<g id="edge17" class="edge">
<title>other_tcp_udp_services&#45;&gt;client</title>
<path fill="none" stroke="black" d="M558.9,-93.24C670.64,-96.9 851.82,-110.53 894,-160 961.92,-239.65 872,-289.82 872,-394.5 872,-1270 872,-1270 872,-1270 872,-1284.35 872,-1300.33 872,-1313.49"/>
<polygon fill="black" stroke="black" points="868.5,-1313.78 872,-1323.78 875.5,-1313.78 868.5,-1313.78"/>
</g>
<!-- authelia&#45;&gt;client -->
<g id="edge21" class="edge">
<title>authelia&#45;&gt;client</title>
<path fill="none" stroke="black" d="M675.63,-456.93C676.22,-474.08 677,-501.38 677,-525 677,-1270 677,-1270 677,-1270 677,-1303.24 778.3,-1325.45 834.88,-1335.26"/>
<polygon fill="black" stroke="black" points="834.44,-1338.73 844.89,-1336.95 835.61,-1331.83 834.44,-1338.73"/>
<text text-anchor="middle" x="767" y="-901.8" font-family="Handlee" font-size="14.00">403 unauthorized</text>
<text text-anchor="middle" x="767" y="-886.8" font-family="Handlee" font-size="14.00">or</text>
<text text-anchor="middle" x="767" y="-871.8" font-family="Handlee" font-size="14.00">302 redirect to login page</text>
</g>
<!-- authelia&#45;&gt;authorized -->
<g id="edge20" class="edge">
<title>authelia&#45;&gt;authorized</title>
<path fill="none" stroke="black" d="M651.4,-423.77C627.98,-409.65 591.91,-387.91 565.94,-372.25"/>
<polygon fill="black" stroke="black" points="567.58,-369.16 557.21,-366.99 563.97,-375.15 567.58,-369.16"/>
<text text-anchor="middle" x="649.5" y="-391.8" font-family="Handlee" font-size="14.00">authorized</text>
</g>
<!-- kube_proxy -->
<g id="node16" class="node">
<title>kube_proxy</title>
<ellipse fill="none" stroke="black" cx="434" cy="-265" rx="62.29" ry="18"/>
<text text-anchor="middle" x="434" y="-261.3" font-family="Handlee" font-size="14.00">kube_proxy</text>
</g>
<!-- authorized&#45;&gt;kube_proxy -->
<g id="edge22" class="edge">
<title>authorized&#45;&gt;kube_proxy</title>
<path fill="none" stroke="black" d="M508.02,-338.16C497.23,-332.2 484.94,-324.54 475,-316 466.57,-308.76 458.53,-299.64 451.84,-291.18"/>
<polygon fill="black" stroke="black" points="454.47,-288.87 445.63,-283.03 448.9,-293.11 454.47,-288.87"/>
<text text-anchor="middle" x="515" y="-304.8" font-family="Handlee" font-size="14.00">k8s ingress</text>
</g>
<!-- hostname -->
<g id="node17" class="node">
<title>hostname</title>
<polygon fill="none" stroke="black" points="593,-283 513.9,-265 593,-247 672.1,-265 593,-283"/>
<polyline fill="none" stroke="black" points="525.61,-267.66 525.61,-262.34 "/>
<polyline fill="none" stroke="black" points="581.3,-249.66 604.7,-249.66 "/>
<polyline fill="none" stroke="black" points="660.39,-262.34 660.39,-267.66 "/>
<polyline fill="none" stroke="black" points="604.7,-280.34 581.3,-280.34 "/>
<text text-anchor="middle" x="593" y="-261.3" font-family="Handlee" font-size="14.00">hostname</text>
</g>
<!-- authorized&#45;&gt;hostname -->
<g id="edge23" class="edge">
<title>authorized&#45;&gt;hostname</title>
<path fill="none" stroke="black" d="M545.38,-334.61C554.3,-321.75 566.85,-303.67 576.82,-289.3"/>
<polygon fill="black" stroke="black" points="579.82,-291.13 582.65,-280.92 574.07,-287.13 579.82,-291.13"/>
</g>
<!-- traefik_ingress -->
<g id="node22" class="node">
<title>traefik_ingress</title>
<ellipse fill="none" stroke="black" cx="195" cy="-178" rx="120.78" ry="18"/>
<text text-anchor="middle" x="195" y="-174.3" font-family="Handlee" font-size="14.00">traefik ingress controller</text>
</g>
<!-- kube_proxy&#45;&gt;traefik_ingress -->
<g id="edge31" class="edge">
<title>kube_proxy&#45;&gt;traefik_ingress</title>
<path fill="none" stroke="black" d="M396.39,-250.63C356.71,-236.51 293.82,-214.15 248.88,-198.16"/>
<polygon fill="black" stroke="black" points="249.89,-194.81 239.29,-194.75 247.54,-201.4 249.89,-194.81"/>
</g>
<!-- request_path -->
<g id="node18" class="node">
<title>request_path</title>
<polygon fill="none" stroke="black" points="469,-196 372.48,-178 469,-160 565.52,-178 469,-196"/>
<polyline fill="none" stroke="black" points="384.27,-180.2 384.27,-175.8 "/>
<polyline fill="none" stroke="black" points="457.2,-162.2 480.8,-162.2 "/>
<polyline fill="none" stroke="black" points="553.73,-175.8 553.73,-180.2 "/>
<polyline fill="none" stroke="black" points="480.8,-193.8 457.2,-193.8 "/>
<text text-anchor="middle" x="469" y="-174.3" font-family="Handlee" font-size="14.00">request path</text>
</g>
<!-- hostname&#45;&gt;request_path -->
<g id="edge24" class="edge">
<title>hostname&#45;&gt;request_path</title>
<path fill="none" stroke="black" d="M552.19,-256.2C514.03,-248.49 462.02,-236.76 456,-229 450.4,-221.79 451.31,-212.42 454.43,-203.74"/>
<polygon fill="black" stroke="black" points="457.73,-204.94 458.67,-194.39 451.35,-202.05 457.73,-204.94"/>
<text text-anchor="middle" x="488" y="-217.8" font-family="Handlee" font-size="14.00">wstunnel</text>
</g>
<!-- docker_services -->
<g id="node19" class="node">
<title>docker_services</title>
<ellipse fill="none" stroke="black" cx="624" cy="-178" rx="40.89" ry="18"/>
<text text-anchor="middle" x="624" y="-174.3" font-family="Handlee" font-size="14.00">docker</text>
</g>
<!-- hostname&#45;&gt;docker_services -->
<g id="edge25" class="edge">
<title>hostname&#45;&gt;docker_services</title>
<path fill="none" stroke="black" d="M561.6,-254.03C539.53,-245.28 515.92,-231.26 528,-214 528.89,-212.73 557.56,-202.36 583.33,-193.24"/>
<polygon fill="black" stroke="black" points="584.74,-196.46 593.01,-189.83 582.41,-189.86 584.74,-196.46"/>
<text text-anchor="middle" x="624" y="-217.8" font-family="Handlee" font-size="14.00">dynamic docker hostnames</text>
</g>
<!-- other_services -->
<g id="node20" class="node">
<title>other_services</title>
<ellipse fill="none" stroke="black" cx="784" cy="-178" rx="100.98" ry="18"/>
<text text-anchor="middle" x="784" y="-174.3" font-family="Handlee" font-size="14.00">other HTTP services</text>
</g>
<!-- hostname&#45;&gt;other_services -->
<g id="edge26" class="edge">
<title>hostname&#45;&gt;other_services</title>
<path fill="none" stroke="black" d="M635.71,-256.62C661.1,-251.18 693.44,-242.36 720,-229 727.79,-225.08 743,-213.27 756.64,-202.11"/>
<polygon fill="black" stroke="black" points="758.94,-204.75 764.42,-195.68 754.48,-199.36 758.94,-204.75"/>
<text text-anchor="middle" x="799" y="-217.8" font-family="Handlee" font-size="14.00">other hostnames</text>
</g>
<!-- request_path&#45;&gt;ssh_server -->
<g id="edge29" class="edge">
<title>request_path&#45;&gt;ssh_server</title>
<path fill="none" stroke="black" d="M424.93,-168.14C347.05,-152.49 185.34,-120 100.56,-102.96"/>
<polygon fill="black" stroke="black" points="101.1,-99.5 90.61,-100.96 99.72,-106.37 101.1,-99.5"/>
<text text-anchor="middle" x="295.5" y="-130.8" font-family="Handlee" font-size="14.00">ssh</text>
</g>
<!-- request_path&#45;&gt;other_tcp_udp_services -->
<g id="edge30" class="edge">
<title>request_path&#45;&gt;other_tcp_udp_services</title>
<path fill="none" stroke="black" d="M469,-159.8C469,-148.16 469,-132.55 469,-119.24"/>
<polygon fill="black" stroke="black" points="472.5,-119.18 469,-109.18 465.5,-119.18 472.5,-119.18"/>
<text text-anchor="middle" x="509.5" y="-130.8" font-family="Handlee" font-size="14.00">other paths</text>
</g>
<!-- docker_container -->
<g id="node21" class="node">
<title>docker_container</title>
<polygon fill="none" stroke="black" points="964,-109 882,-109 882,-73 964,-73 964,-109"/>
<text text-anchor="middle" x="923" y="-87.3" font-family="Handlee" font-size="14.00">container</text>
</g>
<!-- docker_services&#45;&gt;docker_container -->
<g id="edge27" class="edge">
<title>docker_services&#45;&gt;docker_container</title>
<path fill="none" stroke="black" d="M655.11,-166.09C661.34,-164 667.86,-161.88 674,-160 742.09,-139.15 821.59,-117.98 872.1,-104.93"/>
<polygon fill="black" stroke="black" points="872.99,-108.31 881.8,-102.43 871.24,-101.53 872.99,-108.31"/>
</g>
<!-- other_services&#45;&gt;client -->
<g id="edge37" class="edge">
<title>other_services&#45;&gt;client</title>
<path fill="none" stroke="black" d="M833.55,-193.77C843.79,-198.79 853.68,-205.39 861,-214 914.84,-277.33 910,-311.37 910,-394.5 910,-1270 910,-1270 910,-1270 910,-1286.47 901.95,-1302.82 893.26,-1315.67"/>
<polygon fill="black" stroke="black" points="890.28,-1313.82 887.24,-1323.96 895.95,-1317.93 890.28,-1313.82"/>
</g>
<!-- docker_container&#45;&gt;client -->
<g id="edge28" class="edge">
<title>docker_container&#45;&gt;client</title>
<path fill="none" stroke="black" d="M932.17,-109.04C940.33,-125.83 951,-152.45 951,-177 951,-1270 951,-1270 951,-1270 951,-1294.9 929.02,-1313.28 908.25,-1325.1"/>
<polygon fill="black" stroke="black" points="906.38,-1322.13 899.19,-1329.91 909.66,-1328.31 906.38,-1322.13"/>
</g>
<!-- sidecar -->
<g id="node23" class="node">
<title>sidecar</title>
<ellipse fill="none" stroke="black" cx="195" cy="-91" rx="43.59" ry="18"/>
<text text-anchor="middle" x="195" y="-87.3" font-family="Handlee" font-size="14.00">sidecar</text>
</g>
<!-- traefik_ingress&#45;&gt;sidecar -->
<g id="edge32" class="edge">
<title>traefik_ingress&#45;&gt;sidecar</title>
<path fill="none" stroke="black" d="M195,-159.8C195,-148.16 195,-132.55 195,-119.24"/>
<polygon fill="black" stroke="black" points="198.5,-119.18 195,-109.18 191.5,-119.18 198.5,-119.18"/>
</g>
<!-- kubernetes_backend_services -->
<g id="node24" class="node">
<title>kubernetes_backend_services</title>
<polygon fill="none" stroke="black" points="344.5,-36 189.5,-36 189.5,0 344.5,0 344.5,-36"/>
<text text-anchor="middle" x="267" y="-14.3" font-family="Handlee" font-size="14.00">kubernetes services</text>
</g>
<!-- traefik_ingress&#45;&gt;kubernetes_backend_services -->
<g id="edge33" class="edge">
<title>traefik_ingress&#45;&gt;kubernetes_backend_services</title>
<path fill="none" stroke="black" d="M211.84,-160.02C223.71,-147.09 239.04,-128.27 248,-109 257.23,-89.15 262.02,-64.75 264.48,-46.36"/>
<polygon fill="black" stroke="black" points="267.97,-46.66 265.68,-36.31 261.02,-45.83 267.97,-46.66"/>
</g>
<!-- sidecar&#45;&gt;kubernetes_backend_services -->
<g id="edge34" class="edge">
<title>sidecar&#45;&gt;kubernetes_backend_services</title>
<path fill="none" stroke="black" d="M210.98,-74.24C220.18,-65.17 231.94,-53.57 242.31,-43.35"/>
<polygon fill="black" stroke="black" points="244.89,-45.72 249.55,-36.2 239.98,-40.73 244.89,-45.72"/>
</g>
<!-- kubernetes_backend_services&#45;&gt;client -->
<g id="edge35" class="edge">
<title>kubernetes_backend_services&#45;&gt;client</title>
<path fill="none" stroke="black" d="M344.59,-18.61C531.62,-18.71 992,-25.5 992,-90 992,-1270 992,-1270 992,-1270 992,-1309 944.48,-1327.03 909.25,-1335.04"/>
<polygon fill="black" stroke="black" points="908.3,-1331.66 899.23,-1337.13 909.73,-1338.51 908.3,-1331.66"/>
</g>
</g>
</svg>
