<?xml version="1.0" encoding="UTF-8" standalone="no"?>
<!DOCTYPE svg PUBLIC "-//W3C//DTD SVG 1.1//EN"
 "http://www.w3.org/Graphics/SVG/1.1/DTD/svg11.dtd">
<!-- Generated by graphviz version 2.49.3 (0)
 -->
<!-- Title: G Pages: 1 -->
<svg width="147pt" height="422pt"
 viewBox="0.00 0.00 147.00 422.00" xmlns="http://www.w3.org/2000/svg" xmlns:xlink="http://www.w3.org/1999/xlink">
<g id="graph0" class="graph" transform="scale(1 1) rotate(0) translate(4 418)">
<title>G</title>
<polygon fill="white" stroke="transparent" points="-4,4 -4,-418 143,-418 143,4 -4,4"/>
<!-- source -->
<g id="node1" class="node">
<title>source</title>
<polygon fill="none" stroke="black" points="86,-414 0,-414 0,-378 86,-378 86,-414"/>
<text text-anchor="middle" x="43" y="-392.3" font-family="Times,serif" font-size="14.00">rust source</text>
</g>
<!-- hir -->
<g id="node2" class="node">
<title>hir</title>
<polygon fill="none" stroke="black" points="86,-312 0,-312 0,-276 86,-276 86,-312"/>
<text text-anchor="middle" x="43" y="-290.3" font-family="Times,serif" font-size="14.00">HIR</text>
</g>
<!-- source&#45;&gt;hir -->
<g id="edge1" class="edge">
<title>source&#45;&gt;hir</title>
<path fill="none" stroke="black" d="M43,-377.58C43,-362.38 43,-340.07 43,-322.46"/>
<polygon fill="black" stroke="black" points="46.5,-322.22 43,-312.22 39.5,-322.22 46.5,-322.22"/>
<text text-anchor="middle" x="75" y="-348.8" font-family="Times,serif" font-size="14.00"> parsing</text>
<text text-anchor="middle" x="75" y="-333.8" font-family="Times,serif" font-size="14.00"> desugaring</text>
</g>
<!-- mir -->
<g id="node3" class="node">
<title>mir</title>
<polygon fill="none" stroke="black" points="86,-225 0,-225 0,-189 86,-189 86,-225"/>
<text text-anchor="middle" x="43" y="-203.3" font-family="Times,serif" font-size="14.00">MIR</text>
</g>
<!-- hir&#45;&gt;mir -->
<g id="edge2" class="edge">
<title>hir&#45;&gt;mir</title>
<path fill="none" stroke="black" d="M43,-275.8C43,-264.16 43,-248.55 43,-235.24"/>
<polygon fill="black" stroke="black" points="46.5,-235.18 43,-225.18 39.5,-235.18 46.5,-235.18"/>
<text text-anchor="middle" x="83" y="-246.8" font-family="Times,serif" font-size="14.00"> type checking</text>
</g>
<!-- llir -->
<g id="node4" class="node">
<title>llir</title>
<polygon fill="none" stroke="black" points="86,-123 0,-123 0,-87 86,-87 86,-123"/>
<text text-anchor="middle" x="43" y="-101.3" font-family="Times,serif" font-size="14.00">LLVM IR</text>
</g>
<!-- mir&#45;&gt;llir -->
<g id="edge3" class="edge">
<title>mir&#45;&gt;llir</title>
<path fill="none" stroke="black" d="M43,-188.58C43,-173.38 43,-151.07 43,-133.46"/>
<polygon fill="black" stroke="black" points="46.5,-133.22 43,-123.22 39.5,-133.22 46.5,-133.22"/>
<text text-anchor="middle" x="91" y="-159.8" font-family="Times,serif" font-size="14.00"> borrow checking</text>
<text text-anchor="middle" x="91" y="-144.8" font-family="Times,serif" font-size="14.00"> optimization</text>
</g>
<!-- machine_code -->
<g id="node5" class="node">
<title>machine_code</title>
<polygon fill="none" stroke="black" points="86,-36 0,-36 0,0 86,0 86,-36"/>
<text text-anchor="middle" x="43" y="-14.3" font-family="Times,serif" font-size="14.00">machine code</text>
</g>
<!-- llir&#45;&gt;machine_code -->
<g id="edge4" class="edge">
<title>llir&#45;&gt;machine_code</title>
<path fill="none" stroke="black" d="M43,-86.8C43,-75.16 43,-59.55 43,-46.24"/>
<polygon fill="black" stroke="black" points="46.5,-46.18 43,-36.18 39.5,-46.18 46.5,-46.18"/>
<text text-anchor="middle" x="79.5" y="-57.8" font-family="Times,serif" font-size="14.00"> optimization</text>
</g>
</g>
</svg>
