<?xml version="1.0" encoding="UTF-8" standalone="no"?>
<!DOCTYPE svg PUBLIC "-//W3C//DTD SVG 1.1//EN"
 "http://www.w3.org/Graphics/SVG/1.1/DTD/svg11.dtd">
<!-- Generated by graphviz version 2.43.0 (0)
 -->
<!-- Title: Mir_0_11 Pages: 1 -->
<svg width="2231pt" height="1727pt"
 viewBox="0.00 0.00 2230.50 1727.00" xmlns="http://www.w3.org/2000/svg" xmlns:xlink="http://www.w3.org/1999/xlink">
<g id="graph0" class="graph" transform="scale(1 1) rotate(0) translate(4 1723)">
<title>Mir_0_11</title>
<polygon fill="white" stroke="transparent" points="-4,4 -4,-1723 2226.5,-1723 2226.5,4 -4,4"/>
<text text-anchor="start" x="496.25" y="-307.8" font-family="Courier, monospace" font-size="14.00">fn main::{closure#0}(_1: std::pin::Pin&lt;&amp;mut [static generator@src/main.rs:4:17: 6:2]&gt;, _2: std::future::ResumeTy) &#45;&gt; std::ops::GeneratorState&lt;(), ()&gt;</text>
<text text-anchor="start" x="496.25" y="-292.8" font-family="Courier, monospace" font-size="14.00">let mut _3: tokio::time::Sleep;</text>
<text text-anchor="start" x="496.25" y="-277.8" font-family="Courier, monospace" font-size="14.00">let mut _4: tokio::time::Sleep;</text>
<text text-anchor="start" x="496.25" y="-262.8" font-family="Courier, monospace" font-size="14.00">let mut _5: std::time::Duration;</text>
<text text-anchor="start" x="496.25" y="-247.8" font-family="Courier, monospace" font-size="14.00">let mut _6: std::task::Poll&lt;()&gt;;</text>
<text text-anchor="start" x="496.25" y="-232.8" font-family="Courier, monospace" font-size="14.00">let mut _7: std::pin::Pin&lt;&amp;mut tokio::time::Sleep&gt;;</text>
<text text-anchor="start" x="496.25" y="-217.8" font-family="Courier, monospace" font-size="14.00">let mut _8: &amp;mut tokio::time::Sleep;</text>
<text text-anchor="start" x="496.25" y="-202.8" font-family="Courier, monospace" font-size="14.00">let mut _9: &amp;mut tokio::time::Sleep;</text>
<text text-anchor="start" x="496.25" y="-187.8" font-family="Courier, monospace" font-size="14.00">let mut _10: &amp;mut std::task::Context;</text>
<text text-anchor="start" x="496.25" y="-172.8" font-family="Courier, monospace" font-size="14.00">let mut _11: &amp;mut std::task::Context;</text>
<text text-anchor="start" x="496.25" y="-157.8" font-family="Courier, monospace" font-size="14.00">let mut _12: std::future::ResumeTy;</text>
<text text-anchor="start" x="496.25" y="-142.8" font-family="Courier, monospace" font-size="14.00">let mut _13: isize;</text>
<text text-anchor="start" x="496.25" y="-127.8" font-family="Courier, monospace" font-size="14.00">let _14: ();</text>
<text text-anchor="start" x="496.25" y="-112.8" font-family="Courier, monospace" font-size="14.00">let mut _15: std::future::ResumeTy;</text>
<text text-anchor="start" x="496.25" y="-97.8" font-family="Courier, monospace" font-size="14.00">let mut _16: ();</text>
<text text-anchor="start" x="496.25" y="-82.8" font-family="Courier, monospace" font-size="14.00">let mut _17: ();</text>
<text text-anchor="start" x="496.25" y="-67.8" font-family="Courier, monospace" font-size="14.00">let mut _18: std::future::ResumeTy;</text>
<text text-anchor="start" x="496.25" y="-52.8" font-family="Courier, monospace" font-size="14.00">let mut _19: u32;</text>
<text text-anchor="start" x="496.25" y="-37.8" font-family="Courier, monospace" font-size="14.00">debug _task_context =&gt; _18;</text>
<text text-anchor="start" x="496.25" y="-22.8" font-family="Courier, monospace" font-size="14.00">debug pinned =&gt; (((*(_1.0: &amp;mut [static generator@src/main.rs:4:17: 6:2])) as variant#3).0: tokio::time::Sleep);</text>
<text text-anchor="start" x="496.25" y="-7.8" font-family="Courier, monospace" font-size="14.00">debug result =&gt; _14;</text>
<!-- bb0__0_11 -->
<g id="node1" class="node">
<title>bb0__0_11</title>
<polygon fill="gray" stroke="transparent" points="973,-1693.5 973,-1714.5 1607,-1714.5 1607,-1693.5 973,-1693.5"/>
<polygon fill="none" stroke="black" points="973,-1693.5 973,-1714.5 1607,-1714.5 1607,-1693.5 973,-1693.5"/>
<text text-anchor="start" x="1285.5" y="-1700.3" font-family="Courier, monospace" font-size="14.00">0</text>
<polygon fill="none" stroke="black" points="973,-1672.5 973,-1693.5 1607,-1693.5 1607,-1672.5 973,-1672.5"/>
<text text-anchor="start" x="976" y="-1679.3" font-family="Courier, monospace" font-size="14.00">_19 = discriminant((*(_1.0: &amp;mut [static generator@src/main.rs:4:17: 6:2])))</text>
<polygon fill="none" stroke="black" points="973,-1651.5 973,-1672.5 1607,-1672.5 1607,-1651.5 973,-1651.5"/>
<text text-anchor="start" x="976" y="-1658.3" font-family="Courier, monospace" font-size="14.00">switchInt(move _19)</text>
</g>
<!-- bb1__0_11 -->
<g id="node2" class="node">
<title>bb1__0_11</title>
<polygon fill="gray" stroke="transparent" points="705,-1571.5 705,-1592.5 1017,-1592.5 1017,-1571.5 705,-1571.5"/>
<polygon fill="none" stroke="black" points="705,-1571.5 705,-1592.5 1017,-1592.5 1017,-1571.5 705,-1571.5"/>
<text text-anchor="start" x="856.5" y="-1578.3" font-family="Courier, monospace" font-size="14.00">1</text>
<polygon fill="none" stroke="black" points="705,-1550.5 705,-1571.5 1017,-1571.5 1017,-1550.5 705,-1550.5"/>
<text text-anchor="start" x="708" y="-1557.3" font-family="Courier, monospace" font-size="14.00">_18 = move _2</text>
<polygon fill="none" stroke="black" points="705,-1529.5 705,-1550.5 1017,-1550.5 1017,-1529.5 705,-1529.5"/>
<text text-anchor="start" x="708" y="-1536.3" font-family="Courier, monospace" font-size="14.00">_5 = Duration::from_secs(const 1_u64)</text>
</g>
<!-- bb0__0_11&#45;&gt;bb1__0_11 -->
<g id="edge1" class="edge">
<title>bb0__0_11&#45;&gt;bb1__0_11</title>
<path fill="none" stroke="black" d="M1166.49,-1647.95C1112.55,-1632.86 1049.19,-1615.14 994.19,-1599.76"/>
<polygon fill="black" stroke="black" points="994.95,-1596.34 984.38,-1597.01 993.07,-1603.08 994.95,-1596.34"/>
<text text-anchor="middle" x="1123" y="-1618.8" font-family="Courier, monospace" font-size="14.00">0_u32</text>
</g>
<!-- bb15__0_11 -->
<g id="node16" class="node">
<title>bb15__0_11</title>
<polygon fill="gray" stroke="transparent" points="364,-1483 364,-1504 486,-1504 486,-1483 364,-1483"/>
<polygon fill="none" stroke="black" points="364,-1483 364,-1504 486,-1504 486,-1483 364,-1483"/>
<text text-anchor="start" x="416.5" y="-1489.8" font-family="Courier, monospace" font-size="14.00">15</text>
<polygon fill="none" stroke="black" points="364,-1447 364,-1483 486,-1483 486,-1447 364,-1447"/>
<text text-anchor="start" x="367" y="-1468.8" font-family="Courier, monospace" font-size="14.00">_15 = move _2</text>
<text text-anchor="start" x="367" y="-1453.8" font-family="Courier, monospace" font-size="14.00">_18 = move _15</text>
<polygon fill="none" stroke="black" points="364,-1426 364,-1447 486,-1447 486,-1426 364,-1426"/>
<text text-anchor="start" x="367" y="-1432.8" font-family="Courier, monospace" font-size="14.00">goto</text>
</g>
<!-- bb0__0_11&#45;&gt;bb15__0_11 -->
<g id="edge4" class="edge">
<title>bb0__0_11&#45;&gt;bb15__0_11</title>
<path fill="none" stroke="black" d="M964.76,-1655.69C873.87,-1643 775.95,-1624.36 688,-1597 622.87,-1576.74 554.02,-1541.9 503.11,-1513.24"/>
<polygon fill="black" stroke="black" points="504.56,-1510.04 494.14,-1508.15 501.11,-1516.13 504.56,-1510.04"/>
<text text-anchor="middle" x="836" y="-1618.8" font-family="Courier, monospace" font-size="14.00">3_u32</text>
</g>
<!-- bb16__0_11 -->
<g id="node17" class="node">
<title>bb16__0_11</title>
<polygon fill="gray" stroke="transparent" points="1052,-1561.5 1052,-1582.5 1529,-1582.5 1529,-1561.5 1052,-1561.5"/>
<polygon fill="none" stroke="black" points="1052,-1561.5 1052,-1582.5 1529,-1582.5 1529,-1561.5 1052,-1561.5"/>
<text text-anchor="start" x="1282" y="-1568.3" font-family="Courier, monospace" font-size="14.00">16</text>
<polygon fill="none" stroke="black" points="1052,-1540.5 1052,-1561.5 1529,-1561.5 1529,-1540.5 1052,-1540.5"/>
<text text-anchor="start" x="1055" y="-1547.3" font-family="Courier, monospace" font-size="14.00">assert(const false, &quot;`async fn` resumed after panicking&quot;)</text>
</g>
<!-- bb0__0_11&#45;&gt;bb16__0_11 -->
<g id="edge3" class="edge">
<title>bb0__0_11&#45;&gt;bb16__0_11</title>
<path fill="none" stroke="black" d="M1290,-1647.79C1290,-1631.78 1290,-1612.82 1290,-1596.86"/>
<polygon fill="black" stroke="black" points="1293.5,-1596.85 1290,-1586.85 1286.5,-1596.85 1293.5,-1596.85"/>
<text text-anchor="middle" x="1311" y="-1618.8" font-family="Courier, monospace" font-size="14.00">2_u32</text>
</g>
<!-- bb17__0_11 -->
<g id="node18" class="node">
<title>bb17__0_11</title>
<polygon fill="gray" stroke="transparent" points="1581,-1561.5 1581,-1582.5 2066,-1582.5 2066,-1561.5 1581,-1561.5"/>
<polygon fill="none" stroke="black" points="1581,-1561.5 1581,-1582.5 2066,-1582.5 2066,-1561.5 1581,-1561.5"/>
<text text-anchor="start" x="1815" y="-1568.3" font-family="Courier, monospace" font-size="14.00">17</text>
<polygon fill="none" stroke="black" points="1581,-1540.5 1581,-1561.5 2066,-1561.5 2066,-1540.5 1581,-1540.5"/>
<text text-anchor="start" x="1584" y="-1547.3" font-family="Courier, monospace" font-size="14.00">assert(const false, &quot;`async fn` resumed after completion&quot;)</text>
</g>
<!-- bb0__0_11&#45;&gt;bb17__0_11 -->
<g id="edge2" class="edge">
<title>bb0__0_11&#45;&gt;bb17__0_11</title>
<path fill="none" stroke="black" d="M1443.45,-1647.95C1527.21,-1629.09 1629.25,-1606.12 1706.43,-1588.74"/>
<polygon fill="black" stroke="black" points="1707.21,-1592.16 1716.2,-1586.55 1705.67,-1585.33 1707.21,-1592.16"/>
<text text-anchor="middle" x="1610" y="-1618.8" font-family="Courier, monospace" font-size="14.00">1_u32</text>
</g>
<!-- bb18__0_11 -->
<g id="node19" class="node">
<title>bb18__0_11</title>
<polygon fill="gray" stroke="transparent" points="2118,-1561.5 2118,-1582.5 2215,-1582.5 2215,-1561.5 2118,-1561.5"/>
<polygon fill="none" stroke="black" points="2118,-1561.5 2118,-1582.5 2215,-1582.5 2215,-1561.5 2118,-1561.5"/>
<text text-anchor="start" x="2158" y="-1568.3" font-family="Courier, monospace" font-size="14.00">18</text>
<polygon fill="none" stroke="black" points="2118,-1540.5 2118,-1561.5 2215,-1561.5 2215,-1540.5 2118,-1540.5"/>
<text text-anchor="start" x="2121" y="-1547.3" font-family="Courier, monospace" font-size="14.00">unreachable</text>
</g>
<!-- bb0__0_11&#45;&gt;bb18__0_11 -->
<g id="edge5" class="edge">
<title>bb0__0_11&#45;&gt;bb18__0_11</title>
<path fill="none" stroke="black" d="M1615.18,-1660.84C1800.02,-1646.06 2011.89,-1624.22 2101,-1597 2106.35,-1595.37 2111.76,-1593.28 2117.07,-1590.95"/>
<polygon fill="black" stroke="black" points="2118.91,-1593.96 2126.47,-1586.53 2115.93,-1587.62 2118.91,-1593.96"/>
<text text-anchor="middle" x="2058.5" y="-1618.8" font-family="Courier, monospace" font-size="14.00">otherwise</text>
</g>
<!-- bb2__0_11 -->
<g id="node3" class="node">
<title>bb2__0_11</title>
<polygon fill="gray" stroke="transparent" points="726,-1379 726,-1400 997,-1400 997,-1379 726,-1379"/>
<polygon fill="none" stroke="black" points="726,-1379 726,-1400 997,-1400 997,-1379 726,-1379"/>
<text text-anchor="start" x="857" y="-1385.8" font-family="Courier, monospace" font-size="14.00">2</text>
<polygon fill="none" stroke="black" points="726,-1358 726,-1379 997,-1379 997,-1358 726,-1358"/>
<text text-anchor="start" x="729" y="-1364.8" font-family="Courier, monospace" font-size="14.00">_4 = tokio::time::sleep(move _5)</text>
</g>
<!-- bb1__0_11&#45;&gt;bb2__0_11 -->
<g id="edge6" class="edge">
<title>bb1__0_11&#45;&gt;bb2__0_11</title>
<path fill="none" stroke="black" d="M861,-1525.7C861,-1493.58 861,-1446.15 861,-1414.22"/>
<polygon fill="black" stroke="black" points="864.5,-1414.03 861,-1404.03 857.5,-1414.03 864.5,-1414.03"/>
<text text-anchor="middle" x="886" y="-1461.3" font-family="Courier, monospace" font-size="14.00">return</text>
</g>
<!-- bb14__0_11 -->
<g id="node15" class="node">
<title>bb14__0_11</title>
<polygon fill="lightblue" stroke="transparent" points="1432,-391 1432,-412 2049,-412 2049,-391 1432,-391"/>
<polygon fill="none" stroke="black" points="1432,-391 1432,-412 2049,-412 2049,-391 1432,-391"/>
<text text-anchor="start" x="1690.5" y="-397.8" font-family="Courier, monospace" font-size="14.00">14 (cleanup)</text>
<polygon fill="none" stroke="black" points="1432,-370 1432,-391 2049,-391 2049,-370 1432,-370"/>
<text text-anchor="start" x="1435" y="-376.8" font-family="Courier, monospace" font-size="14.00">discriminant((*(_1.0: &amp;mut [static generator@src/main.rs:4:17: 6:2]))) = 2</text>
<polygon fill="none" stroke="black" points="1432,-349 1432,-370 2049,-370 2049,-349 1432,-349"/>
<text text-anchor="start" x="1435" y="-355.8" font-family="Courier, monospace" font-size="14.00">resume</text>
</g>
<!-- bb1__0_11&#45;&gt;bb14__0_11 -->
<g id="edge7" class="edge">
<title>bb1__0_11&#45;&gt;bb14__0_11</title>
<path fill="none" stroke="black" d="M1025.35,-1527.62C1028.25,-1527.07 1031.14,-1526.53 1034,-1526 1222.22,-1491.06 1883,-1571.44 1883,-1380 1883,-1380 1883,-1380 1883,-539.5 1883,-490.74 1844.97,-450.39 1808.14,-422.74"/>
<polygon fill="black" stroke="black" points="1809.96,-419.74 1799.82,-416.68 1805.84,-425.4 1809.96,-419.74"/>
<text text-anchor="middle" x="1908" y="-978.8" font-family="Courier, monospace" font-size="14.00">unwind</text>
</g>
<!-- bb3__0_11 -->
<g id="node4" class="node">
<title>bb3__0_11</title>
<polygon fill="gray" stroke="transparent" points="968,-1278 968,-1299 1371,-1299 1371,-1278 968,-1278"/>
<polygon fill="none" stroke="black" points="968,-1278 968,-1299 1371,-1299 1371,-1278 968,-1278"/>
<text text-anchor="start" x="1165" y="-1284.8" font-family="Courier, monospace" font-size="14.00">3</text>
<polygon fill="none" stroke="black" points="968,-1257 968,-1278 1371,-1278 1371,-1257 968,-1257"/>
<text text-anchor="start" x="971" y="-1263.8" font-family="Courier, monospace" font-size="14.00">_3 = &lt;Sleep as IntoFuture&gt;::into_future(move _4)</text>
</g>
<!-- bb2__0_11&#45;&gt;bb3__0_11 -->
<g id="edge8" class="edge">
<title>bb2__0_11&#45;&gt;bb3__0_11</title>
<path fill="none" stroke="black" d="M935.95,-1353.91C980.84,-1339.48 1038.01,-1321.1 1084.5,-1306.16"/>
<polygon fill="black" stroke="black" points="1085.8,-1309.42 1094.25,-1303.03 1083.66,-1302.76 1085.8,-1309.42"/>
<text text-anchor="middle" x="1059" y="-1324.8" font-family="Courier, monospace" font-size="14.00">return</text>
</g>
<!-- bb2__0_11&#45;&gt;bb14__0_11 -->
<g id="edge9" class="edge">
<title>bb2__0_11&#45;&gt;bb14__0_11</title>
<path fill="none" stroke="black" d="M717.17,-1375.06C481.26,-1368.3 38,-1346.59 38,-1279 38,-1279 38,-1279 38,-539.5 38,-515.94 38.1,-504.08 57,-490 134.39,-432.36 393.7,-463.3 490,-457 636.13,-447.44 672.81,-447.52 819,-439 1016.18,-427.5 1237.06,-413.86 1413.08,-402.8"/>
<polygon fill="black" stroke="black" points="1413.52,-406.28 1423.28,-402.16 1413.08,-399.3 1413.52,-406.28"/>
<text text-anchor="middle" x="63" y="-917.8" font-family="Courier, monospace" font-size="14.00">unwind</text>
</g>
<!-- bb4__0_11 -->
<g id="node5" class="node">
<title>bb4__0_11</title>
<polygon fill="gray" stroke="transparent" points="733,-1176.5 733,-1197.5 1606,-1197.5 1606,-1176.5 733,-1176.5"/>
<polygon fill="none" stroke="black" points="733,-1176.5 733,-1197.5 1606,-1197.5 1606,-1176.5 733,-1176.5"/>
<text text-anchor="start" x="1165" y="-1183.3" font-family="Courier, monospace" font-size="14.00">4</text>
<polygon fill="none" stroke="black" points="733,-1155.5 733,-1176.5 1606,-1176.5 1606,-1155.5 733,-1155.5"/>
<text text-anchor="start" x="736" y="-1162.3" font-family="Courier, monospace" font-size="14.00">(((*(_1.0: &amp;mut [static generator@src/main.rs:4:17: 6:2])) as variant#3).0: tokio::time::Sleep) = move _3</text>
<polygon fill="none" stroke="black" points="733,-1134.5 733,-1155.5 1606,-1155.5 1606,-1134.5 733,-1134.5"/>
<text text-anchor="start" x="736" y="-1141.3" font-family="Courier, monospace" font-size="14.00">goto</text>
</g>
<!-- bb3__0_11&#45;&gt;bb4__0_11 -->
<g id="edge10" class="edge">
<title>bb3__0_11&#45;&gt;bb4__0_11</title>
<path fill="none" stroke="black" d="M1169,-1252.97C1169,-1241.13 1169,-1226.46 1169,-1212.63"/>
<polygon fill="black" stroke="black" points="1172.5,-1212.28 1169,-1202.28 1165.5,-1212.28 1172.5,-1212.28"/>
<text text-anchor="middle" x="1194" y="-1223.8" font-family="Courier, monospace" font-size="14.00">return</text>
</g>
<!-- bb3__0_11&#45;&gt;bb14__0_11 -->
<g id="edge11" class="edge">
<title>bb3__0_11&#45;&gt;bb14__0_11</title>
<path fill="none" stroke="black" d="M1378.82,-1261.23C1568.43,-1244.06 1818,-1212.85 1818,-1167.5 1818,-1167.5 1818,-1167.5 1818,-539.5 1818,-497.52 1795.48,-455.18 1774.64,-424.99"/>
<polygon fill="black" stroke="black" points="1777.47,-422.93 1768.82,-416.8 1771.76,-426.98 1777.47,-422.93"/>
<text text-anchor="middle" x="1843" y="-856.8" font-family="Courier, monospace" font-size="14.00">unwind</text>
</g>
<!-- bb5__0_11 -->
<g id="node6" class="node">
<title>bb5__0_11</title>
<polygon fill="gray" stroke="transparent" points="733,-1069 733,-1090 1606,-1090 1606,-1069 733,-1069"/>
<polygon fill="none" stroke="black" points="733,-1069 733,-1090 1606,-1090 1606,-1069 733,-1069"/>
<text text-anchor="start" x="1165" y="-1075.8" font-family="Courier, monospace" font-size="14.00">5</text>
<polygon fill="none" stroke="black" points="733,-1033 733,-1069 1606,-1069 1606,-1033 733,-1033"/>
<text text-anchor="start" x="736" y="-1054.8" font-family="Courier, monospace" font-size="14.00">_9 = &amp;mut (((*(_1.0: &amp;mut [static generator@src/main.rs:4:17: 6:2])) as variant#3).0: tokio::time::Sleep)</text>
<text text-anchor="start" x="736" y="-1039.8" font-family="Courier, monospace" font-size="14.00">_8 = &amp;mut (*_9)</text>
<polygon fill="none" stroke="black" points="733,-1012 733,-1033 1606,-1033 1606,-1012 733,-1012"/>
<text text-anchor="start" x="736" y="-1018.8" font-family="Courier, monospace" font-size="14.00">_7 = Pin::&lt;&amp;mut Sleep&gt;::new_unchecked(move _8)</text>
</g>
<!-- bb4__0_11&#45;&gt;bb5__0_11 -->
<g id="edge12" class="edge">
<title>bb4__0_11&#45;&gt;bb5__0_11</title>
<path fill="none" stroke="black" d="M1169,-1130.83C1169,-1122.4 1169,-1113.2 1169,-1104.15"/>
<polygon fill="black" stroke="black" points="1172.5,-1104.06 1169,-1094.06 1165.5,-1104.06 1172.5,-1104.06"/>
</g>
<!-- bb6__0_11 -->
<g id="node7" class="node">
<title>bb6__0_11</title>
<polygon fill="gray" stroke="transparent" points="1055,-931.5 1055,-952.5 1284,-952.5 1284,-931.5 1055,-931.5"/>
<polygon fill="none" stroke="black" points="1055,-931.5 1055,-952.5 1284,-952.5 1284,-931.5 1055,-931.5"/>
<text text-anchor="start" x="1165" y="-938.3" font-family="Courier, monospace" font-size="14.00">6</text>
<polygon fill="none" stroke="black" points="1055,-910.5 1055,-931.5 1284,-931.5 1284,-910.5 1055,-910.5"/>
<text text-anchor="start" x="1058" y="-917.3" font-family="Courier, monospace" font-size="14.00">_12 = _18</text>
<polygon fill="none" stroke="black" points="1055,-889.5 1055,-910.5 1284,-910.5 1284,-889.5 1055,-889.5"/>
<text text-anchor="start" x="1058" y="-896.3" font-family="Courier, monospace" font-size="14.00">_11 = get_context(move _12)</text>
</g>
<!-- bb5__0_11&#45;&gt;bb6__0_11 -->
<g id="edge13" class="edge">
<title>bb5__0_11&#45;&gt;bb6__0_11</title>
<path fill="none" stroke="black" d="M1169,-1007.9C1169,-994.96 1169,-980.68 1169,-967.55"/>
<polygon fill="black" stroke="black" points="1172.5,-967.33 1169,-957.33 1165.5,-967.33 1172.5,-967.33"/>
<text text-anchor="middle" x="1194" y="-978.8" font-family="Courier, monospace" font-size="14.00">return</text>
</g>
<!-- bb13__0_11 -->
<g id="node14" class="node">
<title>bb13__0_11</title>
<polygon fill="lightblue" stroke="transparent" points="942,-677.5 942,-698.5 1782,-698.5 1782,-677.5 942,-677.5"/>
<polygon fill="none" stroke="black" points="942,-677.5 942,-698.5 1782,-698.5 1782,-677.5 942,-677.5"/>
<text text-anchor="start" x="1312" y="-684.3" font-family="Courier, monospace" font-size="14.00">13 (cleanup)</text>
<polygon fill="none" stroke="black" points="942,-656.5 942,-677.5 1782,-677.5 1782,-656.5 942,-656.5"/>
<text text-anchor="start" x="945" y="-663.3" font-family="Courier, monospace" font-size="14.00">drop((((*(_1.0: &amp;mut [static generator@src/main.rs:4:17: 6:2])) as variant#3).0: tokio::time::Sleep))</text>
</g>
<!-- bb5__0_11&#45;&gt;bb13__0_11 -->
<g id="edge14" class="edge">
<title>bb5__0_11&#45;&gt;bb13__0_11</title>
<path fill="none" stroke="black" d="M1243.98,-1007.86C1264.2,-993.74 1284.7,-976.55 1300,-957 1356.94,-884.26 1363.82,-769.71 1363.36,-712.87"/>
<polygon fill="black" stroke="black" points="1366.86,-712.56 1363.19,-702.62 1359.86,-712.68 1366.86,-712.56"/>
<text text-anchor="middle" x="1373" y="-856.8" font-family="Courier, monospace" font-size="14.00">unwind</text>
</g>
<!-- bb7__0_11 -->
<g id="node8" class="node">
<title>bb7__0_11</title>
<polygon fill="gray" stroke="transparent" points="846,-809.5 846,-830.5 1240,-830.5 1240,-809.5 846,-809.5"/>
<polygon fill="none" stroke="black" points="846,-809.5 846,-830.5 1240,-830.5 1240,-809.5 846,-809.5"/>
<text text-anchor="start" x="1038.5" y="-816.3" font-family="Courier, monospace" font-size="14.00">7</text>
<polygon fill="none" stroke="black" points="846,-788.5 846,-809.5 1240,-809.5 1240,-788.5 846,-788.5"/>
<text text-anchor="start" x="849" y="-795.3" font-family="Courier, monospace" font-size="14.00">_10 = &amp;mut (*_11)</text>
<polygon fill="none" stroke="black" points="846,-767.5 846,-788.5 1240,-788.5 1240,-767.5 846,-767.5"/>
<text text-anchor="start" x="849" y="-774.3" font-family="Courier, monospace" font-size="14.00">_6 = &lt;Sleep as Future&gt;::poll(move _7, move _10)</text>
</g>
<!-- bb6__0_11&#45;&gt;bb7__0_11 -->
<g id="edge15" class="edge">
<title>bb6__0_11&#45;&gt;bb7__0_11</title>
<path fill="none" stroke="black" d="M1132.56,-885.79C1118.32,-872.23 1101.87,-856.57 1086.98,-842.39"/>
<polygon fill="black" stroke="black" points="1089.02,-839.49 1079.36,-835.13 1084.19,-844.56 1089.02,-839.49"/>
<text text-anchor="middle" x="1139" y="-856.8" font-family="Courier, monospace" font-size="14.00">return</text>
</g>
<!-- bb6__0_11&#45;&gt;bb13__0_11 -->
<g id="edge16" class="edge">
<title>bb6__0_11&#45;&gt;bb13__0_11</title>
<path fill="none" stroke="black" d="M1209.5,-885.6C1225.32,-870.87 1242.99,-852.98 1257,-835 1279.39,-806.25 1277.94,-794.42 1298,-764 1309.89,-745.98 1324.2,-726.66 1336.28,-710.96"/>
<polygon fill="black" stroke="black" points="1339.37,-712.69 1342.72,-702.64 1333.83,-708.4 1339.37,-712.69"/>
<text text-anchor="middle" x="1323" y="-795.8" font-family="Courier, monospace" font-size="14.00">unwind</text>
</g>
<!-- bb8__0_11 -->
<g id="node9" class="node">
<title>bb8__0_11</title>
<polygon fill="gray" stroke="transparent" points="720,-687.5 720,-708.5 908,-708.5 908,-687.5 720,-687.5"/>
<polygon fill="none" stroke="black" points="720,-687.5 720,-708.5 908,-708.5 908,-687.5 720,-687.5"/>
<text text-anchor="start" x="809.5" y="-694.3" font-family="Courier, monospace" font-size="14.00">8</text>
<polygon fill="none" stroke="black" points="720,-666.5 720,-687.5 908,-687.5 908,-666.5 720,-666.5"/>
<text text-anchor="start" x="723" y="-673.3" font-family="Courier, monospace" font-size="14.00">_13 = discriminant(_6)</text>
<polygon fill="none" stroke="black" points="720,-645.5 720,-666.5 908,-666.5 908,-645.5 720,-645.5"/>
<text text-anchor="start" x="723" y="-652.3" font-family="Courier, monospace" font-size="14.00">switchInt(move _13)</text>
</g>
<!-- bb7__0_11&#45;&gt;bb8__0_11 -->
<g id="edge17" class="edge">
<title>bb7__0_11&#45;&gt;bb8__0_11</title>
<path fill="none" stroke="black" d="M977.07,-763.95C949.53,-749.52 917.39,-732.68 888.95,-717.78"/>
<polygon fill="black" stroke="black" points="890.34,-714.55 879.86,-713.01 887.09,-720.75 890.34,-714.55"/>
<text text-anchor="middle" x="968" y="-734.8" font-family="Courier, monospace" font-size="14.00">return</text>
</g>
<!-- bb7__0_11&#45;&gt;bb13__0_11 -->
<g id="edge18" class="edge">
<title>bb7__0_11&#45;&gt;bb13__0_11</title>
<path fill="none" stroke="black" d="M1132.98,-763.98C1160.85,-753.35 1191.67,-741.64 1220,-731 1241.76,-722.83 1265.42,-714.04 1287.08,-706.04"/>
<polygon fill="black" stroke="black" points="1288.39,-709.28 1296.56,-702.54 1285.96,-702.72 1288.39,-709.28"/>
<text text-anchor="middle" x="1245" y="-734.8" font-family="Courier, monospace" font-size="14.00">unwind</text>
</g>
<!-- bb9__0_11 -->
<g id="node10" class="node">
<title>bb9__0_11</title>
<polygon fill="gray" stroke="transparent" points="1079,-565.5 1079,-586.5 1696,-586.5 1696,-565.5 1079,-565.5"/>
<polygon fill="none" stroke="black" points="1079,-565.5 1079,-586.5 1696,-586.5 1696,-565.5 1079,-565.5"/>
<text text-anchor="start" x="1383" y="-572.3" font-family="Courier, monospace" font-size="14.00">9</text>
<polygon fill="none" stroke="black" points="1079,-514.5 1079,-565.5 1696,-565.5 1696,-514.5 1079,-514.5"/>
<text text-anchor="start" x="1082" y="-551.3" font-family="Courier, monospace" font-size="14.00">((_0 as Yielded).0: ()) = move _16</text>
<text text-anchor="start" x="1082" y="-536.3" font-family="Courier, monospace" font-size="14.00">discriminant(_0) = 0</text>
<text text-anchor="start" x="1082" y="-521.3" font-family="Courier, monospace" font-size="14.00">discriminant((*(_1.0: &amp;mut [static generator@src/main.rs:4:17: 6:2]))) = 3</text>
<polygon fill="none" stroke="black" points="1079,-493.5 1079,-514.5 1696,-514.5 1696,-493.5 1079,-493.5"/>
<text text-anchor="start" x="1082" y="-500.3" font-family="Courier, monospace" font-size="14.00">return</text>
</g>
<!-- bb8__0_11&#45;&gt;bb9__0_11 -->
<g id="edge20" class="edge">
<title>bb8__0_11&#45;&gt;bb9__0_11</title>
<path fill="none" stroke="black" d="M916.12,-644.39C919.11,-643.57 922.07,-642.77 925,-642 991.2,-624.55 1063.29,-607.8 1130.42,-593.15"/>
<polygon fill="black" stroke="black" points="1131.26,-596.55 1140.29,-591.01 1129.77,-589.71 1131.26,-596.55"/>
<text text-anchor="middle" x="1081" y="-612.8" font-family="Courier, monospace" font-size="14.00">1_isize</text>
</g>
<!-- bb10__0_11 -->
<g id="node11" class="node">
<title>bb10__0_11</title>
<polygon fill="gray" stroke="transparent" points="948,-540.5 948,-561.5 1045,-561.5 1045,-540.5 948,-540.5"/>
<polygon fill="none" stroke="black" points="948,-540.5 948,-561.5 1045,-561.5 1045,-540.5 948,-540.5"/>
<text text-anchor="start" x="988" y="-547.3" font-family="Courier, monospace" font-size="14.00">10</text>
<polygon fill="none" stroke="black" points="948,-519.5 948,-540.5 1045,-540.5 1045,-519.5 948,-519.5"/>
<text text-anchor="start" x="951" y="-526.3" font-family="Courier, monospace" font-size="14.00">unreachable</text>
</g>
<!-- bb8__0_11&#45;&gt;bb10__0_11 -->
<g id="edge21" class="edge">
<title>bb8__0_11&#45;&gt;bb10__0_11</title>
<path fill="none" stroke="black" d="M861.69,-641.98C882.97,-626.49 908.31,-607.92 931,-591 939.27,-584.83 948.09,-578.17 956.48,-571.79"/>
<polygon fill="black" stroke="black" points="958.85,-574.39 964.69,-565.54 954.61,-568.82 958.85,-574.39"/>
<text text-anchor="middle" x="943.5" y="-612.8" font-family="Courier, monospace" font-size="14.00">otherwise</text>
</g>
<!-- bb11__0_11 -->
<g id="node12" class="node">
<title>bb11__0_11</title>
<polygon fill="gray" stroke="transparent" points="74,-550.5 74,-571.5 914,-571.5 914,-550.5 74,-550.5"/>
<polygon fill="none" stroke="black" points="74,-550.5 74,-571.5 914,-571.5 914,-550.5 74,-550.5"/>
<text text-anchor="start" x="485.5" y="-557.3" font-family="Courier, monospace" font-size="14.00">11</text>
<polygon fill="none" stroke="black" points="74,-529.5 74,-550.5 914,-550.5 914,-529.5 74,-529.5"/>
<text text-anchor="start" x="77" y="-536.3" font-family="Courier, monospace" font-size="14.00">_14 = ((_6 as Ready).0: ())</text>
<polygon fill="none" stroke="black" points="74,-508.5 74,-529.5 914,-529.5 914,-508.5 74,-508.5"/>
<text text-anchor="start" x="77" y="-515.3" font-family="Courier, monospace" font-size="14.00">drop((((*(_1.0: &amp;mut [static generator@src/main.rs:4:17: 6:2])) as variant#3).0: tokio::time::Sleep))</text>
</g>
<!-- bb8__0_11&#45;&gt;bb11__0_11 -->
<g id="edge19" class="edge">
<title>bb8__0_11&#45;&gt;bb11__0_11</title>
<path fill="none" stroke="black" d="M732.01,-641.91C687.14,-622.98 631.43,-599.48 585.19,-579.97"/>
<polygon fill="black" stroke="black" points="586.35,-576.66 575.78,-576 583.63,-583.11 586.35,-576.66"/>
<text text-anchor="middle" x="712" y="-612.8" font-family="Courier, monospace" font-size="14.00">0_isize</text>
</g>
<!-- bb12__0_11 -->
<g id="node13" class="node">
<title>bb12__0_11</title>
<polygon fill="gray" stroke="transparent" points="186,-414 186,-435 803,-435 803,-414 186,-414"/>
<polygon fill="none" stroke="black" points="186,-414 186,-435 803,-435 803,-414 186,-414"/>
<text text-anchor="start" x="486" y="-420.8" font-family="Courier, monospace" font-size="14.00">12</text>
<polygon fill="none" stroke="black" points="186,-348 186,-414 803,-414 803,-348 186,-348"/>
<text text-anchor="start" x="189" y="-399.8" font-family="Courier, monospace" font-size="14.00">_17 = const ()</text>
<text text-anchor="start" x="189" y="-384.8" font-family="Courier, monospace" font-size="14.00">((_0 as Complete).0: ()) = move _17</text>
<text text-anchor="start" x="189" y="-369.8" font-family="Courier, monospace" font-size="14.00">discriminant(_0) = 1</text>
<text text-anchor="start" x="189" y="-354.8" font-family="Courier, monospace" font-size="14.00">discriminant((*(_1.0: &amp;mut [static generator@src/main.rs:4:17: 6:2]))) = 1</text>
<polygon fill="none" stroke="black" points="186,-327 186,-348 803,-348 803,-327 186,-327"/>
<text text-anchor="start" x="189" y="-333.8" font-family="Courier, monospace" font-size="14.00">return</text>
</g>
<!-- bb11__0_11&#45;&gt;bb12__0_11 -->
<g id="edge22" class="edge">
<title>bb11__0_11&#45;&gt;bb12__0_11</title>
<path fill="none" stroke="black" d="M494,-504.94C494,-488.59 494,-468.48 494,-449.3"/>
<polygon fill="black" stroke="black" points="497.5,-449.08 494,-439.08 490.5,-449.08 497.5,-449.08"/>
<text text-anchor="middle" x="519" y="-460.8" font-family="Courier, monospace" font-size="14.00">return</text>
</g>
<!-- bb11__0_11&#45;&gt;bb14__0_11 -->
<g id="edge23" class="edge">
<title>bb11__0_11&#45;&gt;bb14__0_11</title>
<path fill="none" stroke="black" d="M767.05,-504.98C971.43,-479.15 1250.18,-443.92 1456.93,-417.78"/>
<polygon fill="black" stroke="black" points="1457.55,-421.23 1467.03,-416.5 1456.67,-414.29 1457.55,-421.23"/>
<text text-anchor="middle" x="1142" y="-460.8" font-family="Courier, monospace" font-size="14.00">unwind</text>
</g>
<!-- bb13__0_11&#45;&gt;bb14__0_11 -->
<g id="edge24" class="edge">
<title>bb13__0_11&#45;&gt;bb14__0_11</title>
<path fill="none" stroke="black" d="M1537.39,-652.41C1612.01,-638.5 1687.49,-618.27 1712,-591 1751.93,-546.58 1752.34,-473.88 1747.38,-427"/>
<polygon fill="black" stroke="black" points="1750.83,-426.35 1746.18,-416.83 1743.87,-427.17 1750.83,-426.35"/>
<text text-anchor="middle" x="1774" y="-536.8" font-family="Courier, monospace" font-size="14.00">return</text>
</g>
<!-- bb15__0_11&#45;&gt;bb5__0_11 -->
<g id="edge25" class="edge">
<title>bb15__0_11&#45;&gt;bb5__0_11</title>
<path fill="none" stroke="black" d="M355.77,-1456.57C235.34,-1441.7 0,-1403.22 0,-1329.5 0,-1329.5 0,-1329.5 0,-1165.5 0,-1090.54 385.66,-1064.25 713.95,-1055.45"/>
<polygon fill="black" stroke="black" points="714.23,-1058.94 724.13,-1055.18 714.04,-1051.94 714.23,-1058.94"/>
</g>
<!-- bb16__0_11&#45;&gt;bb16__0_11 -->
<g id="edge26" class="edge">
<title>bb16__0_11&#45;&gt;bb16__0_11</title>
<path fill="none" stroke="black" d="M1536.63,-1568.52C1547.91,-1566.74 1554.5,-1564.4 1554.5,-1561.5 1554.5,-1559.6 1551.66,-1557.93 1546.52,-1556.51"/>
<polygon fill="black" stroke="black" points="1547.13,-1553.07 1536.63,-1554.48 1545.72,-1559.92 1547.13,-1553.07"/>
</g>
<!-- bb17__0_11&#45;&gt;bb17__0_11 -->
<g id="edge27" class="edge">
<title>bb17__0_11&#45;&gt;bb17__0_11</title>
<path fill="none" stroke="black" d="M2073.71,-1568.46C2084.94,-1566.69 2091.5,-1564.37 2091.5,-1561.5 2091.5,-1559.62 2088.68,-1557.97 2083.56,-1556.56"/>
<polygon fill="black" stroke="black" points="2084.21,-1553.12 2073.71,-1554.54 2082.8,-1559.97 2084.21,-1553.12"/>
</g>
</g>
</svg>
